<?xml version="1.0" encoding="UTF-8" standalone="no"?>
<!-- Created with Inkscape (http://www.inkscape.org/) -->

<svg
   version="1.1"
   id="svg1"
   width="660"
   height="660"
   viewBox="0 0 660 660"
   sodipodi:docname="xing-logo-240.png"
   xml:space="preserve"
   inkscape:export-filename="ko-logo.svg"
   inkscape:export-xdpi="96"
   inkscape:export-ydpi="96"
   xmlns:inkscape="http://www.inkscape.org/namespaces/inkscape"
   xmlns:sodipodi="http://sodipodi.sourceforge.net/DTD/sodipodi-0.dtd"
   xmlns="http://www.w3.org/2000/svg"
   xmlns:svg="http://www.w3.org/2000/svg"><defs
     id="defs1" /><sodipodi:namedview
     id="namedview1"
     pagecolor="#505050"
     bordercolor="#eeeeee"
     borderopacity="1"
     inkscape:showpageshadow="0"
     inkscape:pageopacity="0"
     inkscape:pagecheckerboard="0"
     inkscape:deskcolor="#505050"
     showgrid="false" /><g
     inkscape:groupmode="layer"
     inkscape:label="Image"
     id="g1"><path
       style="fill:#000000"
       d="m 505.97743,628.64352 c -4.55056,-1.12525 -5.63581,-2.21883 -19.39708,-19.54595 -6.81329,-8.57879 -23.2253,-29.23351 -36.4711,-45.89937 -13.2458,-16.66587 -25.88429,-32.61646 -28.08554,-35.44576 l -4.00227,-5.14419 2.89238,-8.36678 c 1.59081,-4.60173 11.36364,-32.46314 21.71741,-61.91424 10.35378,-29.4511 22.41137,-63.76885 26.79466,-76.26164 15.84157,-45.14989 15.01867,-43.10845 18.38125,-45.60039 2.71896,-2.01497 6.21649,-2.86331 26.31072,-6.38177 24.54238,-4.29769 26.7085,-4.3041 28.63664,-0.0894 1.17146,2.56068 3.74415,-5.08016 -38.91968,115.59027 -20.71475,58.58962 -25.06953,71.28908 -24.85874,72.4934 0.11245,0.64245 2.16705,3.60952 4.56578,6.59349 45.61097,56.73919 74.99492,94.15117 75.29519,95.86669 0.20704,1.18288 -0.35492,3.19238 -1.2488,4.46556 -1.53593,2.18767 -2.91115,2.53776 -25.02633,6.37103 -17.20383,2.98196 -24.24416,3.8477 -26.58449,3.269 z"
       id="path1"
       sodipodi:nodetypes="sssscsssscssscssss" /><path
       d="m 300.787,608.78737 c -2.00952,-1.37374 -3.00103,-4.32593 -2.32232,-6.91466 0.46483,-1.77311 36.09763,-39.29861 63.93778,-67.33404 2.10244,-2.11718 2.01904,-2.63405 -3.65725,-22.66859 -9.69896,-34.23259 -10.39837,-37.10887 -9.6889,-39.84536 1.38394,-5.33792 3.50243,-5.18591 30.25246,2.17061 28.68037,7.88738 25.90583,5.56281 31.84854,26.68345 8.80986,31.31058 12.4914,45.42956 12.16773,46.66407 -0.18753,0.71539 -4.97375,5.94027 -10.63599,11.61092 -5.66225,5.67059 -20.70536,21.07187 -33.42917,34.22505 -12.72379,13.15317 -24.19202,24.61559 -25.48495,25.47199 -4.13591,2.73952 -9.18483,2.14277 -31.00806,-3.66499 -11.36568,-3.02469 -21.25662,-5.90401 -21.97988,-6.39842 z"
       style="fill:#000000"
       id="path1-8" /><g
       id="g14"
       transform="matrix(-0.27045185,0.37720061,-0.37720061,-0.27045185,552.12567,224.45889)"><g
         fill="#000000"
         fill-opacity="1"
         id="g4"><g
           transform="translate(391.41236,524.31157)"
           id="g3"><g
             id="g2"><path
               d="m 313.375,0 h -81.10938 l -88.25,-141.9375 -30.18749,21.65625 V 0 H 42.390625 v -336.875 h 71.437505 v 154.15625 l 28.10937,-39.64062 91.25,-114.51563 h 79.26562 L 194.9375,-187.79687 Z m 0,0"
               id="path1-0" /></g></g></g><g
         fill="#000000"
         fill-opacity="1"
         id="g7"><g
           transform="translate(298.05986,164.17917)"
           id="g6"><g
             id="g5"><path
               d="m -227.39062,359.5625 c -32.3125,-52.09375 -44.22657,-100.14844 -35.75,-144.15625 8.46875,-44.01172 36.8125,-80.96875 85.03125,-110.875 48.21875,-29.90625 93.929682,-38.882812 137.124995,-26.921875 43.1875,11.957031 81.023437,44.125005 113.515625,96.499995 32.5,52.38282 44.35938,100.42188 35.57813,144.10938 C 99.335938,361.90625 70.769531,398.75 22.40625,428.75 c -48.351562,30 -93.972656,39.02344 -136.85938,27.07812 -42.88281,-11.94921 -80.53124,-44.03906 -112.93749,-96.26562 z M 2.296875,217.07812 c -21.800781,-35.16796 -44.894531,-57.51171 -69.28125,-67.03125 -24.394531,-9.51171 -49.863285,-6.03125 -76.406245,10.4375 -53.25,33.01954 -57.92969,84.91016 -14.04688,155.67188 43.98047,70.89453 92.449219,89.92187 145.40625,57.07812 C 14.519531,356.76562 29,335.41016 31.40625,309.17187 33.8125,282.92969 24.109375,252.23437 2.296875,217.07812 Z m 0,0"
               id="path4" /></g></g></g><g
         fill="#000000"
         fill-opacity="1"
         id="g10"><g
           transform="translate(563.67074,176.01756)"
           id="g9"><g
             id="g8"><path
               d="m -353.89062,188.71875 c 0,-60.96094 17.35546,-107.652344 52.0625,-140.078125 C -267.11719,16.210938 -217.00391,0 -151.48437,0 H -46.609375 V 370.35937 H -162.89062 c -60.45704,0 -107.40625,-15.96484 -140.84375,-47.89062 -33.4375,-31.91797 -50.15625,-76.5 -50.15625,-133.75 z m 81.57812,-2.01563 c 0,79.53907 35.125,119.3125 105.375,119.3125 h 41.79687 V 64.84375 h -33.68749 c -75.65625,0 -113.48438,40.61719 -113.48438,121.85937 z m 0,0"
               id="path7" /></g></g></g><g
         fill="#000000"
         fill-opacity="1"
         id="g13"><g
           transform="translate(686.72948,212.28571)"
           id="g12"><g
             id="g11"><path
               d="m -175.6875,126.0625 39.28125,-28.1875 57.5625,80.21875 73.609375,-52.8125 -57.5625,-80.21875 39.40625,-28.28125 133.359375,185.85937 -39.40625,28.28125 -52.265625,-72.84375 -73.609375,52.8125 52.265625,72.84375 -39.28125,28.1875 z m 0,0"
               id="path10" /></g></g></g></g><text
       xml:space="preserve"
       style="font-style:normal;font-variant:normal;font-weight:normal;font-stretch:normal;font-size:267.924px;font-family:Bahnschrift;-inkscape-font-specification:'Bahnschrift, Normal';font-variant-ligatures:normal;font-variant-caps:normal;font-variant-numeric:normal;font-variant-east-asian:normal;fill:#000000;stroke-width:22.327"
       x="71.607834"
       y="239.34032"
       id="text15"><tspan
         sodipodi:role="line"
         x="71.607834"
         y="239.34032"
         style="font-style:normal;font-variant:normal;font-weight:normal;font-stretch:normal;font-size:267.924px;font-family:Bahnschrift;-inkscape-font-specification:'Bahnschrift, Normal';font-variant-ligatures:normal;font-variant-caps:normal;font-variant-numeric:normal;font-variant-east-asian:normal;stroke-width:22.327"
         id="tspan16">4 </tspan></text><text
       xml:space="preserve"
       style="font-style:normal;font-variant:normal;font-weight:normal;font-stretch:normal;font-size:267.924px;font-family:Bahnschrift;-inkscape-font-specification:'Bahnschrift, Normal';font-variant-ligatures:normal;font-variant-caps:normal;font-variant-numeric:normal;font-variant-east-asian:normal;fill:#000000;stroke-width:1.62718"
       x="421.42047"
       y="295.55933"
       id="text17"><tspan
         sodipodi:role="line"
         id="tspan17"
         x="421.42047"
         y="295.55933"
         style="stroke-width:1.62718">4</tspan></text></g></svg>
