<?xml version="1.0" encoding="UTF-8" standalone="no"?>
<!-- Created with Inkscape (http://www.inkscape.org/) -->

<svg
   version="1.1"
   id="svg1"
   width="360"
   height="360"
   viewBox="0 0 360 360"
   sodipodi:docname="xing-logo-240.png"
   xml:space="preserve"
   xmlns:inkscape="http://www.inkscape.org/namespaces/inkscape"
   xmlns:sodipodi="http://sodipodi.sourceforge.net/DTD/sodipodi-0.dtd"
   xmlns="http://www.w3.org/2000/svg"
   xmlns:svg="http://www.w3.org/2000/svg"><defs
     id="defs1" /><sodipodi:namedview
     id="namedview1"
     pagecolor="#505050"
     bordercolor="#eeeeee"
     borderopacity="1"
     inkscape:showpageshadow="0"
     inkscape:pageopacity="0"
     inkscape:pagecheckerboard="0"
     inkscape:deskcolor="#505050"
     showgrid="false" /><g
     inkscape:groupmode="layer"
     inkscape:label="Image"
     id="g1"><path
       style="fill:#000000"
       d="M 222.63917,328.59749 C 218.35076,326.70454 217.4703,325.44022 206.90246,306 c -5.23221,-9.625 -17.83739,-32.8 -28.01149,-51.5 -10.1741,-18.7 -19.87331,-36.59073 -21.5538,-39.75718 l -3.05543,-5.75718 4.29158,-7.74282 C 160.93369,196.98427 175.36374,171.225 190.64011,144 c 15.27637,-27.225 33.0701,-58.950003 39.54163,-70.500003 23.3886,-41.74256 22.22606,-39.87356 25.96792,-41.74844 3.02564,-1.51603 6.61706,-1.74866 27.017,-1.75 24.91583,-0.002 27.05062,0.36514 28.22323,4.84921 0.71243,2.7243 4.56395,-4.35856 -58.2657,107.149233 -30.50595,54.14085 -36.98502,65.89934 -36.98502,67.12197 0,0.65221 1.51228,3.92908 3.36063,7.28193 35.1456,63.7533 57.63937,105.67111 57.63937,107.41271 0,1.20087 -0.9,3.08339 -2,4.18339 -1.8901,1.8901 -3.30509,1.99785 -25.75,1.96086 -17.46032,-0.0288 -24.54449,-0.38984 -26.75,-1.36337 z"
       id="path1"
       sodipodi:nodetypes="sssscsssscssscssss" /><path
       d="m 75.079591,227.94608 c -2.266436,-0.88803 -3.894824,-3.54262 -3.814033,-6.21762 0.05533,-1.8322 26.363749,-46.39367 47.206592,-79.95906 1.57402,-2.53479 1.37682,-3.01979 -8.64837,-21.27078 C 92.693944,89.313544 91.367239,86.667412 91.444875,83.841513 c 0.151444,-5.512314 2.250054,-5.839336 29.968555,-4.669962 29.71872,1.253767 26.4935,-0.389282 37.02192,18.860378 15.608,28.536921 22.36247,41.470461 22.32393,42.746121 -0.0223,0.73922 -3.5147,6.90448 -7.76082,13.70063 -4.24614,6.7961 -15.45167,25.17899 -24.90121,40.85087 -9.44952,15.67186 -18.05469,29.41444 -19.1226,30.53901 -3.41609,3.59736 -8.47022,4.14823 -31.040072,3.38313 -11.75452,-0.39844 -22.039264,-0.98598 -22.854989,-1.30558 z"
       style="fill:#000000"
       id="path1-8" /><g
       id="g14"
       transform="matrix(0.14183488,0,0,0.14183488,52.479919,223.18789)"><g
         fill="#000000"
         fill-opacity="1"
         id="g4"><g
           transform="translate(391.41236,524.31157)"
           id="g3"><g
             id="g2"><path
               d="m 313.375,0 h -81.10938 l -88.25,-141.9375 -30.18749,21.65625 V 0 H 42.390625 v -336.875 h 71.437505 v 154.15625 l 28.10937,-39.64062 91.25,-114.51563 h 79.26562 L 194.9375,-187.79687 Z m 0,0"
               id="path1-0" /></g></g></g><g
         fill="#000000"
         fill-opacity="1"
         id="g7"><g
           transform="translate(298.05986,164.17917)"
           id="g6"><g
             id="g5"><path
               d="m -227.39062,359.5625 c -32.3125,-52.09375 -44.22657,-100.14844 -35.75,-144.15625 8.46875,-44.01172 36.8125,-80.96875 85.03125,-110.875 48.21875,-29.90625 93.929682,-38.882812 137.124995,-26.921875 43.1875,11.957031 81.023437,44.125005 113.515625,96.499995 32.5,52.38282 44.35938,100.42188 35.57813,144.10938 C 99.335938,361.90625 70.769531,398.75 22.40625,428.75 c -48.351562,30 -93.972656,39.02344 -136.85938,27.07812 -42.88281,-11.94921 -80.53124,-44.03906 -112.93749,-96.26562 z M 2.296875,217.07812 c -21.800781,-35.16796 -44.894531,-57.51171 -69.28125,-67.03125 -24.394531,-9.51171 -49.863285,-6.03125 -76.406245,10.4375 -53.25,33.01954 -57.92969,84.91016 -14.04688,155.67188 43.98047,70.89453 92.449219,89.92187 145.40625,57.07812 C 14.519531,356.76562 29,335.41016 31.40625,309.17187 33.8125,282.92969 24.109375,252.23437 2.296875,217.07812 Z m 0,0"
               id="path4" /></g></g></g><g
         fill="#000000"
         fill-opacity="1"
         id="g10"><g
           transform="translate(563.67074,176.01756)"
           id="g9"><g
             id="g8"><path
               d="m -353.89062,188.71875 c 0,-60.96094 17.35546,-107.652344 52.0625,-140.078125 C -267.11719,16.210938 -217.00391,0 -151.48437,0 H -46.609375 V 370.35937 H -162.89062 c -60.45704,0 -107.40625,-15.96484 -140.84375,-47.89062 -33.4375,-31.91797 -50.15625,-76.5 -50.15625,-133.75 z m 81.57812,-2.01563 c 0,79.53907 35.125,119.3125 105.375,119.3125 h 41.79687 V 64.84375 h -33.68749 c -75.65625,0 -113.48438,40.61719 -113.48438,121.85937 z m 0,0"
               id="path7" /></g></g></g><g
         fill="#000000"
         fill-opacity="1"
         id="g13"><g
           transform="translate(686.72948,212.28571)"
           id="g12"><g
             id="g11"><path
               d="m -175.6875,126.0625 39.28125,-28.1875 57.5625,80.21875 73.609375,-52.8125 -57.5625,-80.21875 39.40625,-28.28125 133.359375,185.85937 -39.40625,28.28125 -52.265625,-72.84375 -73.609375,52.8125 52.265625,72.84375 -39.28125,28.1875 z m 0,0"
               id="path10" /></g></g></g></g><text
       xml:space="preserve"
       style="font-size:10.6476px;fill:#000000;stroke-width:0.887302"
       x="-74.599571"
       y="299.88342"
       id="text14"
       transform="rotate(-61.230093)"><tspan
         sodipodi:role="line"
         id="tspan14"
         x="-74.599571"
         y="299.88342"
         style="stroke-width:0.887302">Keyner Oswaldo De la Hoz Hincapie</tspan></text></g></svg>
