<svg xmlns="http://www.w3.org/2000/svg" xmlns:xlink="http://www.w3.org/1999/xlink" width="1080" zoomAndPan="magnify"
    viewBox="0 0 810 809.999993" height="1080" preserveAspectRatio="xMidYMid meet" version="1.0">
    <defs>
        <g />
    </defs>
    <g fill="#ffffff" fill-opacity="1">
        <g transform="translate(391.412357, 524.311571)">
            <g>
                <path
                    d="M 313.375 0 L 232.265625 0 L 144.015625 -141.9375 L 113.828125 -120.28125 L 113.828125 0 L 42.390625 0 L 42.390625 -336.875 L 113.828125 -336.875 L 113.828125 -182.71875 L 141.9375 -222.359375 L 233.1875 -336.875 L 312.453125 -336.875 L 194.9375 -187.796875 Z M 313.375 0 " />
            </g>
        </g>
    </g>
    <g fill="#ffffff" fill-opacity="1">
        <g transform="translate(298.059863, 164.179172)">
            <g>
                <path
                    d="M -227.390625 359.5625 C -259.703125 307.46875 -271.617188 259.414062 -263.140625 215.40625 C -254.671875 171.394531 -226.328125 134.4375 -178.109375 104.53125 C -129.890625 74.625 -84.179688 65.648438 -40.984375 77.609375 C 2.203125 89.566406 40.039062 121.734375 72.53125 174.109375 C 105.03125 226.492188 116.890625 274.53125 108.109375 318.21875 C 99.335938 361.90625 70.769531 398.75 22.40625 428.75 C -25.945312 458.75 -71.566406 467.773438 -114.453125 455.828125 C -157.335938 443.878906 -194.984375 411.789062 -227.390625 359.5625 Z M 2.296875 217.078125 C -19.503906 181.910156 -42.597656 159.566406 -66.984375 150.046875 C -91.378906 140.535156 -116.847656 144.015625 -143.390625 160.484375 C -196.640625 193.503906 -201.320312 245.394531 -157.4375 316.15625 C -113.457031 387.050781 -64.988281 406.078125 -12.03125 373.234375 C 14.519531 356.765625 29 335.410156 31.40625 309.171875 C 33.8125 282.929688 24.109375 252.234375 2.296875 217.078125 Z M 2.296875 217.078125 " />
            </g>
        </g>
    </g>
    <g fill="#ffffff" fill-opacity="1">
        <g transform="translate(563.670743, 176.017563)">
            <g>
                <path
                    d="M -353.890625 188.71875 C -353.890625 127.757812 -336.535156 81.066406 -301.828125 48.640625 C -267.117188 16.210938 -217.003906 0 -151.484375 0 L -46.609375 0 L -46.609375 370.359375 L -162.890625 370.359375 C -223.347656 370.359375 -270.296875 354.394531 -303.734375 322.46875 C -337.171875 290.550781 -353.890625 245.96875 -353.890625 188.71875 Z M -272.3125 186.703125 C -272.3125 266.242188 -237.1875 306.015625 -166.9375 306.015625 L -125.140625 306.015625 L -125.140625 64.84375 L -158.828125 64.84375 C -234.484375 64.84375 -272.3125 105.460938 -272.3125 186.703125 Z M -272.3125 186.703125 " />
            </g>
        </g>
    </g>
    <g fill="#ffffff" fill-opacity="1">
        <g transform="translate(686.729484, 212.285712)">
            <g>
                <path
                    d="M -175.6875 126.0625 L -136.40625 97.875 L -78.84375 178.09375 L -5.234375 125.28125 L -62.796875 45.0625 L -23.390625 16.78125 L 109.96875 202.640625 L 70.5625 230.921875 L 18.296875 158.078125 L -55.3125 210.890625 L -3.046875 283.734375 L -42.328125 311.921875 Z M -175.6875 126.0625 " />
            </g>
        </g>
    </g>
</svg>